<svg id="visual" viewBox="0 0 900 600" width="900" height="600" xmlns="http://www.w3.org/2000/svg" xmlns:xlink="http://www.w3.org/1999/xlink" version="1.1"><rect x="0" y="0" width="900" height="600" fill="#0088BD"></rect><defs><linearGradient id="grad1_0" x1="33.3%" y1="0%" x2="100%" y2="100%"><stop offset="20%" stop-color="#0088bd" stop-opacity="1"></stop><stop offset="80%" stop-color="#0088bd" stop-opacity="1"></stop></linearGradient></defs><defs><linearGradient id="grad2_0" x1="0%" y1="0%" x2="66.7%" y2="100%"><stop offset="20%" stop-color="#0088bd" stop-opacity="1"></stop><stop offset="80%" stop-color="#0088bd" stop-opacity="1"></stop></linearGradient></defs><g transform="translate(900, 0)"><path d="M0 486.7C-22.9 492.9 -45.7 499.1 -63.5 482.6C-81.3 466.1 -94.1 427 -108.4 404.7C-122.8 382.5 -138.8 377 -151.9 366.8C-165.1 356.5 -175.5 341.4 -197.5 342.1C-219.5 342.7 -253.2 359.1 -270.9 353C-288.6 347 -290.2 318.5 -302.6 302.6C-315.1 286.8 -338.4 283.6 -356.2 273.3C-374 263 -386.4 245.6 -394 227.5C-401.7 209.4 -404.7 190.6 -419.4 173.7C-434.2 156.9 -460.7 141.9 -452.1 121.1C-443.4 100.4 -399.6 73.8 -399.6 52.6C-399.5 31.4 -443.1 15.7 -486.7 0L0 0Z" fill="#FFD303"></path></g><g transform="translate(0, 600)"><path d="M0 -486.7C19.2 -467.4 38.3 -448.1 58.7 -446.2C79.1 -444.2 100.8 -459.6 125.5 -468.5C150.3 -477.3 178.2 -479.6 186.3 -449.7C194.4 -419.8 182.7 -357.8 197.5 -342.1C212.3 -326.4 253.4 -357 269.1 -350.7C284.7 -344.3 274.8 -300.9 273.7 -273.7C272.5 -246.4 280.1 -235.2 294.3 -225.9C308.6 -216.5 329.6 -209.1 338.6 -195.5C347.6 -181.9 344.6 -162 355.7 -147.3C366.8 -132.6 391.9 -123.1 407.6 -109.2C423.3 -95.3 429.6 -77 441.2 -58.1C452.8 -39.1 469.8 -19.6 486.7 0L0 0Z" fill="#FFD303"></path></g></svg>